# xmcd
#
# Track frame offsets:
#	150
#	15660
#	29440
#	44945
#	58422
#	71462
#	85677
#	98900
#	111492
#	122355
#	132560
#	146507
#	157235
#	169332
#	183140
#
# Disc length: 2613
#
# Revision: 0
# Processed by: cddbd v1.5.1PL2 Copyright (c) Steve Scherf et al.
# Submitted via: Broken Cross Disk Manager 3.81.2155
#
DISCID=dd0a330f
DTITLE=Living The Blues - Blues Rock CD2
DYEAR=2001
DGENRE=
TTITLE0=John Primor - Keep On Lovin' The Blues
TTITLE1=Fleetwood Mac - Oh Well
TTITLE2=Fred James - Headed For Hard Times
TTITLE3=B.B. King - Fool Me Once
TTITLE4=Eric Clapton with John Mayall - Bernard Jenkins
TTITLE5=Chicken Shack feat. Stan Webb - Unlucky Boy
TTITLE6=Ronnie Earl - O' Yeah
TTITLE7=Sherman Robertson - Hard Love
TTITLE8=Jonny Lang - Good Morning Little Schoolgirl
TTITLE9=Gary Moore - Back On The Streets
TTITLE10=Paul Lamb and The Kingsnakes - She's A Killer
TTITLE11=Allman Brothers Band - Wasted Words
TTITLE12=Buddy Guy - Too Broke To Spend The Night
TTITLE13=Roy Buchanan - Tribute To Elmore James
TTITLE14=Nine Below Zero - So Cold
EXTD=
EXTT0=
EXTT1=
EXTT2=
EXTT3=
EXTT4=
EXTT5=
EXTT6=
EXTT7=
EXTT8=
EXTT9=
EXTT10=
EXTT11=
EXTT12=
EXTT13=
EXTT14=
PLAYORDER=
